<svg width="32" height="32" viewBox="0 0 32 32" fill="none" xmlns="http://www.w3.org/2000/svg">
<path d="M12 5C12.1316 4.99924 12.2621 5.02446 12.3839 5.07423C12.5057 5.12399 12.6166 5.19732 12.71 5.29L21.29 13.88C21.8518 14.4425 22.1674 15.205 22.1674 16C22.1674 16.795 21.8518 17.5575 21.29 18.12L12.71 26.71C12.5217 26.8983 12.2663 27.0041 12 27.0041C11.7337 27.0041 11.4783 26.8983 11.29 26.71C11.1017 26.5217 10.9959 26.2663 10.9959 26C10.9959 25.7337 11.1017 25.4783 11.29 25.29L19.88 16.71C19.9737 16.617 20.0481 16.5064 20.0989 16.3846C20.1497 16.2627 20.1758 16.132 20.1758 16C20.1758 15.868 20.1497 15.7373 20.0989 15.6154C20.0481 15.4936 19.9737 15.383 19.88 15.29L11.29 6.71C11.1963 6.61703 11.1219 6.50643 11.0711 6.38457C11.0203 6.26272 10.9942 6.13201 10.9942 6C10.9942 5.86799 11.0203 5.73728 11.0711 5.61542C11.1219 5.49356 11.1963 5.38296 11.29 5.29C11.3834 5.19732 11.4943 5.12399 11.6161 5.07423C11.7379 5.02446 11.8684 4.99924 12 5Z" fill="#726DA8"/>
</svg>
